<svg width="56" height="57" viewBox="0 0 56 57" fill="none" xmlns="http://www.w3.org/2000/svg">
<rect opacity="0.12" y="0.998047" width="55.9632" height="55.9632" rx="27.9816" fill="#668BEB"/>
<path d="M25.3473 32.8995C25.3473 31.7686 25.5986 30.8367 26.1012 30.1037C26.6248 29.3497 27.3787 28.533 28.363 27.6534C29.117 26.9832 29.6719 26.4073 30.028 25.9256C30.4049 25.423 30.5934 24.8576 30.5934 24.2293C30.5934 23.3497 30.2374 22.6377 29.5253 22.0932C28.8133 21.5487 27.8604 21.2764 26.6667 21.2764C24.4049 21.2764 22.6981 22.0827 21.5462 23.6953L18.4991 21.7162C19.3996 20.4806 20.5619 19.5382 21.986 18.889C23.4101 18.2188 25.0855 17.8837 27.0122 17.8837C29.3578 17.8837 31.2217 18.3968 32.6039 19.423C34.007 20.4282 34.7086 21.8209 34.7086 23.601C34.7086 24.4597 34.562 25.2136 34.2688 25.8628C33.9966 26.512 33.6615 27.067 33.2636 27.5277C32.8657 27.9675 32.3421 28.4806 31.6929 29.067C30.8971 29.7791 30.3002 30.4073 29.9023 30.9518C29.5253 31.4964 29.3368 32.1456 29.3368 32.8995H25.3473ZM27.3578 40.4074C26.6248 40.4074 26.0175 40.177 25.5358 39.7163C25.075 39.2346 24.8447 38.6482 24.8447 37.9571C24.8447 37.266 25.075 36.6901 25.5358 36.2294C26.0175 35.7686 26.6248 35.5383 27.3578 35.5383C28.0698 35.5383 28.6562 35.7686 29.117 36.2294C29.5986 36.6901 29.8395 37.266 29.8395 37.9571C29.8395 38.6482 29.5986 39.2346 29.117 39.7163C28.6562 40.177 28.0698 40.4074 27.3578 40.4074Z" fill="#668BEB"/>
</svg>
